#N canvas -245 -1175 1920 1147 12;
#X obj 183 356 loadbang;
#X obj 180 705 netsend -u -b;
#X obj 268 731 print backward;
#X obj 418 402 metro 50;
#X obj 421 624 list prepend send;
#X obj 421 648 list trim;
#X obj 420 521 snapshot~;
#X msg 182 548 connect 192.168.7.1 7001;
#X obj 420 546 oscformat light_1;
#X obj 550 521 snapshot~;
#X obj 550 547 oscformat light_2;
#X obj 684 522 snapshot~;
#X obj 814 522 snapshot~;
#X obj 684 547 oscformat light_3;
#X obj 814 548 oscformat light_4;
#X obj 943 522 snapshot~;
#X obj 943 548 oscformat light_5;
#X obj 1072 447 adc~ 8;
#X obj 1072 520 snapshot~;
#X obj 1201 519 snapshot~;
#X obj 1329 519 snapshot~;
#X obj 1072 472 lop~ 100;
#X obj 1201 472 lop~ 100;
#X obj 1329 468 lop~ 100;
#X obj 1201 447 adc~ 9;
#X obj 1329 443 adc~ 10;
#X obj 420 470 lop~ 100;
#X obj 420 445 adc~ 3;
#X obj 550 471 lop~ 100;
#X obj 684 470 lop~ 100;
#X obj 814 471 lop~ 100;
#X obj 943 470 lop~ 100;
#X obj 550 446 adc~ 4;
#X obj 684 445 adc~ 5;
#X obj 814 446 adc~ 6;
#X obj 943 445 adc~ 7;
#X obj 1071 548 oscformat light_6;
#X obj 1201 547 oscformat light_7;
#X obj 1329 547 oscformat light_8;
#X text 173 149 LUCE // ライト;
#X text 173 183 RETHINKING PHISICALITY;
#X text 173 195 FROM THE INSIDE TO THE OUTSIDE;
#X text 173 219 A NEW-MUSICAL INTERFACE FOR THE SAXOPHONE;
#X text 172 241 EDUARD TAMPU \, 2022;
#X connect 0 0 7 0;
#X connect 0 0 3 0;
#X connect 1 1 2 0;
#X connect 3 0 6 0;
#X connect 3 0 9 0;
#X connect 3 0 11 0;
#X connect 3 0 12 0;
#X connect 3 0 15 0;
#X connect 3 0 18 0;
#X connect 3 0 19 0;
#X connect 3 0 20 0;
#X connect 4 0 5 0;
#X connect 5 0 1 0;
#X connect 6 0 8 0;
#X connect 7 0 1 0;
#X connect 8 0 4 0;
#X connect 9 0 10 0;
#X connect 10 0 4 0;
#X connect 11 0 13 0;
#X connect 12 0 14 0;
#X connect 13 0 4 0;
#X connect 14 0 4 0;
#X connect 15 0 16 0;
#X connect 16 0 4 0;
#X connect 17 0 21 0;
#X connect 18 0 36 0;
#X connect 19 0 37 0;
#X connect 20 0 38 0;
#X connect 21 0 18 0;
#X connect 22 0 19 0;
#X connect 23 0 20 0;
#X connect 24 0 22 0;
#X connect 25 0 23 0;
#X connect 26 0 6 0;
#X connect 27 0 26 0;
#X connect 28 0 9 0;
#X connect 29 0 11 0;
#X connect 30 0 12 0;
#X connect 31 0 15 0;
#X connect 32 0 28 0;
#X connect 33 0 29 0;
#X connect 34 0 30 0;
#X connect 35 0 31 0;
#X connect 36 0 4 0;
#X connect 37 0 4 0;
#X connect 38 0 4 0;
